HIERARCHY
ROOT hip
{
  OFFSET 0 0 0
  CHANNELS 6 Xposition Yposition Zposition Zrotation Yrotation Xrotation
  JOINT abdomen
  {
    OFFSET 0 20.6881 -0.73152
    CHANNELS 3 Zrotation Xrotation Yrotation
    JOINT chest
    {
      OFFSET 0 11.7043 -0.48768
      CHANNELS 3 Zrotation Xrotation Yrotation
      JOINT neck
      {
        OFFSET 0 22.1894 -2.19456
        CHANNELS 3 Zrotation Xrotation Yrotation
        JOINT head
        {
          OFFSET -0.24384 7.07133 1.2192
          CHANNELS 3 Zrotation Xrotation Yrotation
          JOINT leftEye
          {
            OFFSET 4.14528 8.04674 8.04672
            CHANNELS 3 Zrotation Xrotation Yrotation
            End Site
            {
              OFFSET 1 0 0
            }
          }
          JOINT rightEye
          {
            OFFSET -3.6576 8.04674 8.04672
            CHANNELS 3 Zrotation Xrotation Yrotation
            End Site
            {
              OFFSET 1 0 0
            }
          }
        }
      }
      JOINT rCollar
      {
        OFFSET -2.68224 19.2634 -4.8768
        CHANNELS 3 Zrotation Xrotation Yrotation
        JOINT rShldr
        {
          OFFSET -8.77824 -1.95073 1.46304
          CHANNELS 3 Zrotation Xrotation Yrotation
          JOINT rForeArm
          {
            OFFSET -28.1742 -1.7115 0.48768
            CHANNELS 3 Zrotation Xrotation Yrotation
            JOINT rHand
            {
              OFFSET -22.5879 0.773209 7.07136
              CHANNELS 3 Zrotation Xrotation Yrotation
              JOINT rThumb1
              {
                OFFSET -1.2192 -0.487915 3.41376
                CHANNELS 3 Zrotation Xrotation Yrotation
                JOINT rThumb2
                {
                  OFFSET -3.37035 -0.52449 3.41376
                  CHANNELS 3 Zrotation Xrotation Yrotation
                  End Site
                  {
                    OFFSET -1.78271 -1.18214 1.43049
                  }
                }
              }
              JOINT rIndex1
              {
                OFFSET -7.75947 0.938293 5.60832
                CHANNELS 3 Zrotation Xrotation Yrotation
                JOINT rIndex2
                {
                  OFFSET -2.54057 -0.884171 1.56538
                  CHANNELS 3 Zrotation Xrotation Yrotation
                  End Site
                  {
                    OFFSET -1.62519 -0.234802 1.16502
                  }
                }
              }
              JOINT rMid1
              {
                OFFSET -8.24714 1.18213 3.41376
                CHANNELS 3 Zrotation Xrotation Yrotation
                JOINT rMid2
                {
                  OFFSET -3.10165 -0.590103 1.0647
                  CHANNELS 3 Zrotation Xrotation Yrotation
                  End Site
                  {
                    OFFSET -2.48547 -0.328903 0.83742
                  }
                }
              }
              JOINT rRing1
              {
                OFFSET -8.82822 0.546677 1.51678
                CHANNELS 3 Zrotation Xrotation Yrotation
                JOINT rRing2
                {
                  OFFSET -2.60934 -0.819778 -0.0198488
                  CHANNELS 3 Zrotation Xrotation Yrotation
                  End Site
                  {
                    OFFSET -2.33842 -0.294052 0.168128
                  }
                }
              }
              JOINT rPinky1
              {
                OFFSET -8.27202 -0.0477905 -0.4584
                CHANNELS 3 Zrotation Xrotation Yrotation
                JOINT rPinky2
                {
                  OFFSET -1.82734 -0.647385 -0.700984
                  CHANNELS 3 Zrotation Xrotation Yrotation
                  End Site
                  {
                    OFFSET -1.69225 -0.51767 -0.607171
                  }
                }
              }
            }
          }
        }
      }
      JOINT lCollar
      {
        OFFSET 2.68224 19.2634 -4.8768
        CHANNELS 3 Zrotation Xrotation Yrotation
        JOINT lShldr
        {
          OFFSET 8.77824 -1.95073 1.46304
          CHANNELS 3 Zrotation Xrotation Yrotation
          JOINT lForeArm
          {
            OFFSET 28.1742 -1.7115 0.48768
            CHANNELS 3 Zrotation Xrotation Yrotation
            JOINT lHand
            {
              OFFSET 22.5879 0.773209 7.07136
              CHANNELS 3 Zrotation Xrotation Yrotation
              JOINT lThumb1
              {
                OFFSET 1.2192 -0.487915 3.41376
                CHANNELS 3 Zrotation Xrotation Yrotation
                JOINT lThumb2
                {
                  OFFSET 3.37035 -0.52449 3.41376
                  CHANNELS 3 Zrotation Xrotation Yrotation
                  End Site
                  {
                    OFFSET 1.78271 -1.18214 1.43049
                  }
                }
              }
              JOINT lIndex1
              {
                OFFSET 7.75947 0.938293 5.60832
                CHANNELS 3 Zrotation Xrotation Yrotation
                JOINT lIndex2
                {
                  OFFSET 2.54057 -0.884171 1.56538
                  CHANNELS 3 Zrotation Xrotation Yrotation
                  End Site
                  {
                    OFFSET 1.62519 -0.234802 1.16502
                  }
                }
              }
              JOINT lMid1
              {
                OFFSET 8.24714 1.18213 3.41376
                CHANNELS 3 Zrotation Xrotation Yrotation
                JOINT lMid2
                {
                  OFFSET 3.10165 -0.590103 1.0647
                  CHANNELS 3 Zrotation Xrotation Yrotation
                  End Site
                  {
                    OFFSET 2.48547 -0.328903 0.83742
                  }
                }
              }
              JOINT lRing1
              {
                OFFSET 8.82822 0.546677 1.51678
                CHANNELS 3 Zrotation Xrotation Yrotation
                JOINT lRing2
                {
                  OFFSET 2.60934 -0.819778 -0.0198488
                  CHANNELS 3 Zrotation Xrotation Yrotation
                  End Site
                  {
                    OFFSET 2.33842 -0.294052 0.168128
                  }
                }
              }
              JOINT lPinky1
              {
                OFFSET 8.27202 -0.0477905 -0.4584
                CHANNELS 3 Zrotation Xrotation Yrotation
                JOINT lPinky2
                {
                  OFFSET 1.82734 -0.647385 -0.700984
                  CHANNELS 3 Zrotation Xrotation Yrotation
                  End Site
                  {
                    OFFSET 1.69225 -0.51767 -0.607171
                  }
                }
              }
            }
          }
        }
      }
    }
  }
  JOINT rButtock
  {
    OFFSET -8.77824 4.35084 1.2192
    CHANNELS 3 Zrotation Xrotation Yrotation
    JOINT rThigh
    {
      OFFSET 0 -1.70687 -2.19456
      CHANNELS 3 Zrotation Xrotation Yrotation
      JOINT rShin
      {
        OFFSET 0 -36.8199 0.73152
        CHANNELS 3 Zrotation Xrotation Yrotation
        JOINT rFoot
        {
          OFFSET 0.73152 -45.1104 -5.12064
          CHANNELS 3 Zrotation Xrotation Yrotation
          End Site
          {
            OFFSET -1.1221 -3.69964 12.103
          }
        }
      }
    }
  }
  JOINT lButtock
  {
    OFFSET 8.77824 4.35084 1.2192
    CHANNELS 3 Zrotation Xrotation Yrotation
    JOINT lThigh
    {
      OFFSET 0 -1.70687 -2.19456
      CHANNELS 3 Zrotation Xrotation Yrotation
      JOINT lShin
      {
        OFFSET 0 -36.8199 0.73152
        CHANNELS 3 Zrotation Xrotation Yrotation
        JOINT lFoot
        {
          OFFSET -0.73152 -45.1104 -5.12064
          CHANNELS 3 Zrotation Xrotation Yrotation
          End Site
          {
            OFFSET 1.1221 -3.69964 12.103
          }
        }
      }
    }
  }
}
MOTION
Frames:	7
Frame Time:	0.00833333
0.216597 69.9797 0.411999 -543.80695 -212.353 542.422 -1.63869 18.7113 3.61087 1.54719 -11.1176 1.14451 -6.46071 16.7653 -11.2369 9.11047 -33.3178 -19.893 -0.0 0.0 0.0 -0.0 0.0 0.0 0.0 0.0 0.0 12.3152 2.11677 86.68191 -28.3683 -33.823 73.4273 -4.59871 -50.3401 -9.76278 -0.0 0.0 -0.0 -0.0 -0.0 -0.0 -0.0 0.0 -0.0 7.73091 5.47488 0.417314 -0.0 0.0 -0.0 2.90554 0.965183 0.102902 -0.0 0.0 -0.0 10.2786 0.731801 0.025912 -0.0 0.0 -0.0 2.22167 -0.733487 -0.20892 0.0 0.0 0.0 31.917103 47.3659 -125.597 27.1057 -26.6993 -62.0013 12.2534 -66.2947 18.6678 0.0 0.0 0.0 0.0 0.0 0.0 0.0 0.0 0.0 -7.73091 5.47488 -0.417314 0.0 0.0 0.0 -2.90554 0.965183 -0.102902 0.0 0.0 0.0 -10.2786 0.731801 -0.025912 0.0 0.0 0.0 -2.22167 -0.733487 0.20892 -0.0 0.0 -0.0 -42.0437 -52.5077 -47.0519 -21.9572 87.2563 22.3441 -3.37732 -1.38185 -12.482 0.0 0.0 0.0 6.41825 -48.7265 18.9714 2.97226 75.7927 -4.05447 12.103 -22.2276 21.7394
0.4269 70.0788 0.845003 -543.633 -213.137 542.215 -1.74942 18.7494 3.48838 1.71513 -11.1514 1.13159 -6.43212 16.8587 -11.37 9.14496 -33.1627 -20.1573 -0.0 0.0 0.0 -0.0 0.0 0.0 0.0 0.0 -0.0 13.2803 2.49218 85.1147 -28.3767 -34.3673 74.4177 -4.77349 -50.9531 -9.98528 -0.0 -0.0 -0.0 -0.0 -0.0 -0.0 -0.0 -0.0 -0.0 7.73091 5.47488 0.417314 -0.0 -0.0 -0.0 2.90554 0.965183 0.102902 -0.0 -0.0 -0.0 10.2786 0.731801 0.025912 -0.0 -0.0 -0.0 2.22167 -0.733487 -0.20892 0.0 0.0 -0.0 32.3126 47.1185 -125.989 27.1689 -26.9265 -62.385105 12.1207 -66.1357 18.5228 -0.0 0.0 0.0 -0.0 0.0 0.0 -0.0 0.0 0.0 -7.73091 5.47488 -0.417314 -0.0 0.0 0.0 -2.90554 0.965183 -0.102902 -0.0 0.0 0.0 -10.2786 0.731801 -0.025912 -0.0 0.0 0.0 -2.22167 -0.733487 0.20892 -0.0 0.0 -0.0 -43.2078 -53.168 -48.0508 -13.1195 85.629 13.5348 -3.33625 -2.395 -11.7794 0.0 0.0 0.0 5.42118 -48.0943 17.6115 2.88335 75.5678 -4.0281 12.23 -22.3489 21.81
0.629604 70.1832 1.291001 -543.4421 -213.988 542.008 -1.86333 18.7775 3.37277 1.91749 -11.1874 1.12285 -6.42087 16.9732 -11.5138 9.19017 -33.0061 -20.4414 -0.0 0.0 0.0 -0.0 0.0 0.0 0.0 0.0 -0.0 14.2574 2.99768 83.2998 -28.3932 -35.1334 75.7228 -4.8818 -51.3286 -10.1232 -0.0 -0.0 -0.0 -0.0 -0.0 -0.0 -0.0 -0.0 -0.0 7.73091 5.47488 0.417314 -0.0 -0.0 -0.0 2.90554 0.965183 0.102902 -0.0 -0.0 -0.0 10.2786 0.731801 0.025912 -0.0 -0.0 -0.0 2.22167 -0.733487 -0.20892 0.0 0.0 -0.0 32.7418 46.9666 -126.342995 27.2512 -27.2248 -62.8654 11.9881 -65.9743 18.3776 -0.0 -0.0 -0.0 -0.0 -0.0 -0.0 -0.0 -0.0 -0.0 -7.73091 5.47488 -0.417314 -0.0 -0.0 -0.0 -2.90554 0.965183 -0.102902 -0.0 -0.0 -0.0 -10.2786 0.731801 -0.025912 -0.0 -0.0 -0.0 -2.22167 -0.733487 0.20892 -0.0 0.0 -0.0 -44.2622 -53.7345 -48.8887 -8.82206 83.7696 9.25833 -3.22718 -3.26342 -11.0004 0.0 0.0 0.0 4.50582 -47.419 16.3273 2.79226 75.3159 -3.9935 12.3448 -22.4836 21.8481
0.807601 70.3363 1.779008 -543.299 -214.87502 541.742 -1.93403 18.7912 3.22435 2.15851 -11.2156 1.10928 -6.45491 17.1021 -11.6613 9.26725 -32.8366 -20.7259 -0.0 0.0 0.0 -0.0 0.0 0.0 -0.0 0.0 -0.0 15.248399 3.45658 81.2675 -28.4292 -36.1448 77.2521 -4.74554 -50.8892 -9.95465 -0.0 -0.0 -0.0 -0.0 -0.0 -0.0 -0.0 -0.0 -0.0 7.73091 5.47488 0.417314 -0.0 -0.0 -0.0 2.90554 0.965183 0.102902 -0.0 -0.0 -0.0 10.2786 0.731801 0.025912 -0.0 -0.0 -0.0 2.22167 -0.733487 -0.20892 -0.0 0.0 -0.0 33.1685 46.9925 -126.58401 27.3625 -27.6339 -63.4821 11.9409 -65.9163 18.3259 -0.0 -0.0 -0.0 -0.0 -0.0 -0.0 -0.0 -0.0 -0.0 -7.73091 5.47488 -0.417314 -0.0 -0.0 -0.0 -2.90554 0.965183 -0.102902 -0.0 -0.0 -0.0 -10.2786 0.731801 -0.025912 -0.0 -0.0 -0.0 -2.22167 -0.733487 0.20892 -0.0 0.0 -0.0 -45.1614 -54.1495 -49.5472 -6.3757 81.7473 6.82498 -3.07085 -3.96322 -10.1834 0.0 0.0 0.0 3.72489 -46.7205 15.1195 2.70476 75.05131 -3.95347 12.4378 -22.6199 21.8441
0.9785 70.4775 2.264011 -543.225 -215.815 541.45 -1.94722 18.7997 3.03232 2.46325 -11.2357 1.09087 -6.56308 17.2353 -11.8087 9.40352 -32.6621 -20.9949 -0.0 0.0 0.0 -0.0 0.0 0.0 -0.0 0.0 -0.0 16.2137 3.88548 79.02891 -28.4312 -37.4613 79.2203 -4.51364 -49.8621 -9.61858 -0.0 -0.0 -0.0 -0.0 -0.0 -0.0 -0.0 -0.0 -0.0 7.73091 5.47488 0.417314 -0.0 -0.0 -0.0 2.90554 0.965183 0.102902 -0.0 -0.0 -0.0 10.2786 0.731801 0.025912 -0.0 -0.0 -0.0 2.22167 -0.733487 -0.20892 -0.0 0.0 -0.0 33.5669 47.1967 -126.684 27.4881 -28.1336 -64.2658 11.9269 -65.8957 18.3102 -0.0 -0.0 -0.0 -0.0 -0.0 -0.0 -0.0 -0.0 -0.0 -7.73091 5.47488 -0.417314 -0.0 -0.0 -0.0 -2.90554 0.965183 -0.102902 -0.0 -0.0 -0.0 -10.2786 0.731801 -0.025912 -0.0 -0.0 -0.0 -2.22167 -0.733487 0.20892 -0.0 0.0 -0.0 -45.8799 -54.4047 -50.0421 -4.81437 79.5549 5.26792 -2.89729 -4.6137 -9.3497 0.0 0.0 0.0 3.08885 -46.0026 13.9785 2.62172 74.7713 -3.9076 12.5054 -22.7473 21.7962
1.166898 70.6127 2.727008 -543.215 -216.829 541.124 -1.92839 18.802 2.81795 2.82148 -11.2523 1.07162 -6.72312 17.379 -11.9605 9.58058 -32.4851 -21.2622 -0.0 0.0 0.0 -0.0 0.0 0.0 0.0 0.0 -0.0 17.1944 4.54891 76.6194 -28.3023 -38.9722 81.7624 -4.23847 -48.4266 -9.18886 -0.0 0.0 -0.0 -0.0 0.0 -0.0 -0.0 0.0 -0.0 7.73091 5.47488 0.417314 -0.0 0.0 -0.0 2.90554 0.965183 0.102902 -0.0 0.0 -0.0 10.2786 0.731801 0.025912 -0.0 0.0 -0.0 2.22167 -0.733487 -0.20892 0.0 0.0 -0.0 33.9635 47.544 -126.688 27.616 -28.6969 -65.2013 11.9248 -65.8876 18.3072 -0.0 -0.0 0.0 -0.0 -0.0 0.0 -0.0 -0.0 0.0 -7.73091 5.47488 -0.417314 -0.0 -0.0 0.0 -2.90554 0.965183 -0.102902 -0.0 -0.0 0.0 -10.2786 0.731801 -0.025912 -0.0 -0.0 0.0 -2.22167 -0.733487 0.20892 -0.0 0.0 -0.0 -46.4247 -54.5362 -50.3542 -3.74407 77.1827 4.19346 -2.69181 -5.18386 -8.47325 0.0 0.0 0.0 2.56729 -45.2591 12.9044 2.54122 74.4704 -3.85571 12.5526 -22.8747 21.709
1.342201 70.7742 3.240001 -543.25 -217.88 540.768 -1.89112 18.7773 2.58975 3.18449 -11.2624 1.04856 -6.88619 17.5513 -12.1221 9.75162 -32.2861 -21.553 -0.0 0.0 0.0 -0.0 0.0 0.0 0.0 -0.0 -0.0 18.2859 5.39526 74.05 -28.0268 -40.4915 84.6173 -3.68076 -45.9248 -8.42113 -0.0 0.0 0.0 -0.0 0.0 0.0 -0.0 0.0 0.0 7.73091 5.47488 0.417314 -0.0 0.0 0.0 2.90554 0.965183 0.102902 -0.0 0.0 0.0 10.2786 0.731801 0.025912 -0.0 0.0 0.0 2.22167 -0.733487 -0.20892 0.0 -0.0 -0.0 34.3999 48.0648 -126.62 27.7559 -29.3515 -66.2675 12.0654 -66.0592 18.4611 -0.0 0.0 0.0 -0.0 0.0 0.0 -0.0 0.0 0.0 -7.73091 5.47488 -0.417314 -0.0 0.0 0.0 -2.90554 0.965183 -0.102902 -0.0 0.0 0.0 -10.2786 0.731801 -0.025912 -0.0 0.0 0.0 -2.22167 -0.733487 0.20892 -0.0 0.0 -0.0 -46.7986 -54.5513 -50.4119 -2.98025 74.6797 3.41791 -2.42239 -5.42203 -7.52265 0.0 0.0 0.0 2.14821 -44.496 11.9105 2.46436 74.159 -3.80047 12.5825 -23.0193 21.5826
